<mxfile modified="2023-05-30T10:16:45.897Z" host="app.diagrams.net" agent="Mozilla/5.0 (Windows NT 10.0; Win64; x64) AppleWebKit/537.36 (KHTML, like Gecko) Chrome/113.0.0.0 Safari/537.36" etag="iAUu06E7pKV_4PNEuna0" version="21.3.5" type="device">
  <diagram id="l8hXMBHkgcEJcSW0mbfh" name="Page-1">
    <mxGraphModel dx="2289" dy="1240" grid="1" gridSize="10" guides="1" tooltips="1" connect="1" arrows="1" fold="1" page="1" pageScale="1" pageWidth="1169" pageHeight="827" math="0" shadow="0">
      <root>
        <mxCell id="0" />
        <mxCell id="1" parent="0" />
        <mxCell id="tKc_tNkXUqN4JUZnoyCj-15" value="" style="outlineConnect=0;dashed=0;verticalLabelPosition=bottom;verticalAlign=top;align=center;html=1;shape=mxgraph.aws3.user;fillColor=#D2D3D3;gradientColor=none;" parent="1" vertex="1">
          <mxGeometry x="578.5" y="82" width="80" height="100" as="geometry" />
        </mxCell>
        <mxCell id="tKc_tNkXUqN4JUZnoyCj-16" value="" style="outlineConnect=0;dashed=0;verticalLabelPosition=bottom;verticalAlign=top;align=center;html=1;shape=mxgraph.aws3.user;fillColor=#D2D3D3;gradientColor=none;" parent="1" vertex="1">
          <mxGeometry x="578.5" y="502" width="80" height="100" as="geometry" />
        </mxCell>
        <mxCell id="tKc_tNkXUqN4JUZnoyCj-17" value="" style="outlineConnect=0;dashed=0;verticalLabelPosition=bottom;verticalAlign=top;align=center;html=1;shape=mxgraph.aws3.user;fillColor=#D2D3D3;gradientColor=none;" parent="1" vertex="1">
          <mxGeometry x="578.5" y="222" width="80" height="100" as="geometry" />
        </mxCell>
        <mxCell id="tKc_tNkXUqN4JUZnoyCj-18" value="" style="outlineConnect=0;dashed=0;verticalLabelPosition=bottom;verticalAlign=top;align=center;html=1;shape=mxgraph.aws3.user;fillColor=#D2D3D3;gradientColor=none;" parent="1" vertex="1">
          <mxGeometry x="578.5" y="642" width="80" height="100" as="geometry" />
        </mxCell>
        <mxCell id="tKc_tNkXUqN4JUZnoyCj-19" value="" style="outlineConnect=0;dashed=0;verticalLabelPosition=bottom;verticalAlign=top;align=center;html=1;shape=mxgraph.aws3.user;fillColor=#D2D3D3;gradientColor=none;" parent="1" vertex="1">
          <mxGeometry x="578.5" y="782" width="80" height="100" as="geometry" />
        </mxCell>
        <mxCell id="tKc_tNkXUqN4JUZnoyCj-20" value="" style="outlineConnect=0;dashed=0;verticalLabelPosition=bottom;verticalAlign=top;align=center;html=1;shape=mxgraph.aws3.user;fillColor=#D2D3D3;gradientColor=none;" parent="1" vertex="1">
          <mxGeometry x="578.5" y="362" width="80" height="100" as="geometry" />
        </mxCell>
        <mxCell id="tKc_tNkXUqN4JUZnoyCj-23" value="&lt;font face=&quot;Courier New&quot; style=&quot;font-size: 17px;&quot;&gt;User 1&lt;/font&gt;" style="text;html=1;strokeColor=none;fillColor=none;align=center;verticalAlign=middle;whiteSpace=wrap;rounded=0;fontSize=17;fontStyle=1" parent="1" vertex="1">
          <mxGeometry x="578.5" y="182" width="80" height="30" as="geometry" />
        </mxCell>
        <mxCell id="tKc_tNkXUqN4JUZnoyCj-24" value="&lt;font face=&quot;Courier New&quot; style=&quot;font-size: 17px;&quot;&gt;User 6&lt;/font&gt;" style="text;html=1;strokeColor=none;fillColor=none;align=center;verticalAlign=middle;whiteSpace=wrap;rounded=0;fontSize=17;fontStyle=1" parent="1" vertex="1">
          <mxGeometry x="578.5" y="882" width="80" height="30" as="geometry" />
        </mxCell>
        <mxCell id="tKc_tNkXUqN4JUZnoyCj-25" value="&lt;font face=&quot;Courier New&quot; style=&quot;font-size: 17px;&quot;&gt;User 5&lt;/font&gt;" style="text;html=1;strokeColor=none;fillColor=none;align=center;verticalAlign=middle;whiteSpace=wrap;rounded=0;fontSize=17;fontStyle=1" parent="1" vertex="1">
          <mxGeometry x="578.5" y="742" width="80" height="30" as="geometry" />
        </mxCell>
        <mxCell id="tKc_tNkXUqN4JUZnoyCj-26" value="&lt;font face=&quot;Courier New&quot; style=&quot;font-size: 17px;&quot;&gt;User 4&lt;/font&gt;" style="text;html=1;strokeColor=none;fillColor=none;align=center;verticalAlign=middle;whiteSpace=wrap;rounded=0;fontSize=17;fontStyle=1" parent="1" vertex="1">
          <mxGeometry x="578.5" y="602" width="80" height="30" as="geometry" />
        </mxCell>
        <mxCell id="tKc_tNkXUqN4JUZnoyCj-27" value="&lt;font face=&quot;Courier New&quot; style=&quot;font-size: 17px;&quot;&gt;User 3&lt;/font&gt;" style="text;html=1;strokeColor=none;fillColor=none;align=center;verticalAlign=middle;whiteSpace=wrap;rounded=0;fontSize=17;fontStyle=1" parent="1" vertex="1">
          <mxGeometry x="578.5" y="462" width="80" height="30" as="geometry" />
        </mxCell>
        <mxCell id="tKc_tNkXUqN4JUZnoyCj-28" value="&lt;font face=&quot;Courier New&quot; style=&quot;font-size: 17px;&quot;&gt;User 2&lt;/font&gt;" style="text;html=1;strokeColor=none;fillColor=none;align=center;verticalAlign=middle;whiteSpace=wrap;rounded=0;fontSize=17;fontStyle=1" parent="1" vertex="1">
          <mxGeometry x="578.5" y="322" width="80" height="30" as="geometry" />
        </mxCell>
        <mxCell id="tKc_tNkXUqN4JUZnoyCj-38" value="" style="image;aspect=fixed;perimeter=ellipsePerimeter;html=1;align=center;shadow=0;dashed=0;spacingTop=3;image=img/lib/active_directory/generic_server.svg;" parent="1" vertex="1">
          <mxGeometry x="115" y="396.65" width="90" height="160.7" as="geometry" />
        </mxCell>
        <mxCell id="tKc_tNkXUqN4JUZnoyCj-40" value="" style="endArrow=none;html=1;rounded=0;dashed=1;strokeWidth=2;" parent="1" edge="1">
          <mxGeometry width="50" height="50" relative="1" as="geometry">
            <mxPoint x="371" y="912" as="sourcePoint" />
            <mxPoint x="371" y="84" as="targetPoint" />
          </mxGeometry>
        </mxCell>
        <mxCell id="tKc_tNkXUqN4JUZnoyCj-41" value="&lt;font face=&quot;Courier New&quot; style=&quot;font-size: 25px;&quot;&gt;&lt;b&gt;Initialization&lt;/b&gt;&lt;/font&gt;" style="text;html=1;strokeColor=none;fillColor=none;align=center;verticalAlign=middle;whiteSpace=wrap;rounded=0;" parent="1" vertex="1">
          <mxGeometry x="40" y="22" width="240" height="60" as="geometry" />
        </mxCell>
        <mxCell id="tKc_tNkXUqN4JUZnoyCj-44" value="&lt;font face=&quot;Courier New&quot; style=&quot;font-size: 23px;&quot;&gt;&lt;b&gt;n = 6&lt;br&gt;k = 4&lt;/b&gt;&lt;/font&gt;" style="rounded=0;whiteSpace=wrap;html=1;fillColor=none;" parent="1" vertex="1">
          <mxGeometry x="100" y="90" width="120" height="60" as="geometry" />
        </mxCell>
        <mxCell id="CRX2v8fpZ8JX_sU6unah-1" value="" style="endArrow=none;html=1;rounded=0;strokeColor=default;strokeWidth=3;" parent="1" edge="1">
          <mxGeometry width="50" height="50" relative="1" as="geometry">
            <mxPoint x="210" y="480" as="sourcePoint" />
            <mxPoint x="460" y="480" as="targetPoint" />
          </mxGeometry>
        </mxCell>
        <mxCell id="FQGTf7QeuJeiLilW7rd6-1" value="" style="endArrow=none;html=1;rounded=1;strokeColor=default;strokeWidth=3;" edge="1" parent="1">
          <mxGeometry width="50" height="50" relative="1" as="geometry">
            <mxPoint x="459.5" y="150" as="sourcePoint" />
            <mxPoint x="460" y="850" as="targetPoint" />
          </mxGeometry>
        </mxCell>
        <mxCell id="FQGTf7QeuJeiLilW7rd6-2" value="" style="endArrow=classic;html=1;rounded=0;strokeWidth=3;" edge="1" parent="1">
          <mxGeometry width="50" height="50" relative="1" as="geometry">
            <mxPoint x="459.5" y="160" as="sourcePoint" />
            <mxPoint x="559.5" y="160" as="targetPoint" />
          </mxGeometry>
        </mxCell>
        <mxCell id="FQGTf7QeuJeiLilW7rd6-3" value="" style="endArrow=classic;html=1;rounded=0;strokeWidth=3;" edge="1" parent="1">
          <mxGeometry width="50" height="50" relative="1" as="geometry">
            <mxPoint x="459.5" y="280" as="sourcePoint" />
            <mxPoint x="559.5" y="280" as="targetPoint" />
          </mxGeometry>
        </mxCell>
        <mxCell id="FQGTf7QeuJeiLilW7rd6-4" value="" style="endArrow=classic;html=1;rounded=0;strokeWidth=3;" edge="1" parent="1">
          <mxGeometry width="50" height="50" relative="1" as="geometry">
            <mxPoint x="459.5" y="411.57" as="sourcePoint" />
            <mxPoint x="559.5" y="411.57" as="targetPoint" />
          </mxGeometry>
        </mxCell>
        <mxCell id="FQGTf7QeuJeiLilW7rd6-5" value="" style="endArrow=classic;html=1;rounded=0;strokeWidth=3;" edge="1" parent="1">
          <mxGeometry width="50" height="50" relative="1" as="geometry">
            <mxPoint x="459.5" y="551.57" as="sourcePoint" />
            <mxPoint x="559.5" y="551.57" as="targetPoint" />
          </mxGeometry>
        </mxCell>
        <mxCell id="FQGTf7QeuJeiLilW7rd6-6" value="" style="endArrow=classic;html=1;rounded=0;strokeWidth=3;" edge="1" parent="1">
          <mxGeometry width="50" height="50" relative="1" as="geometry">
            <mxPoint x="459.5" y="691.57" as="sourcePoint" />
            <mxPoint x="559.5" y="691.57" as="targetPoint" />
          </mxGeometry>
        </mxCell>
        <mxCell id="FQGTf7QeuJeiLilW7rd6-7" value="" style="endArrow=classic;html=1;rounded=1;strokeWidth=3;" edge="1" parent="1">
          <mxGeometry width="50" height="50" relative="1" as="geometry">
            <mxPoint x="459.5" y="840.18" as="sourcePoint" />
            <mxPoint x="559.5" y="839.9999999999999" as="targetPoint" />
          </mxGeometry>
        </mxCell>
        <mxCell id="FQGTf7QeuJeiLilW7rd6-8" value="&lt;font style=&quot;font-size: 15px;&quot; face=&quot;Courier New&quot;&gt;(1, P(1))&lt;/font&gt;" style="text;html=1;strokeColor=none;fillColor=none;align=center;verticalAlign=middle;whiteSpace=wrap;rounded=0;" vertex="1" parent="1">
          <mxGeometry x="460" y="130" width="90" height="30" as="geometry" />
        </mxCell>
        <mxCell id="FQGTf7QeuJeiLilW7rd6-14" value="&lt;font style=&quot;font-size: 15px;&quot; face=&quot;Courier New&quot;&gt;(x&lt;sub&gt;i&lt;/sub&gt;, y&lt;sub&gt;i&lt;/sub&gt;)&lt;/font&gt;" style="text;html=1;strokeColor=none;fillColor=none;align=center;verticalAlign=middle;whiteSpace=wrap;rounded=0;" vertex="1" parent="1">
          <mxGeometry x="270" y="450" width="80" height="30" as="geometry" />
        </mxCell>
        <mxCell id="FQGTf7QeuJeiLilW7rd6-15" value="&lt;font style=&quot;font-size: 15px;&quot; face=&quot;Courier New&quot;&gt;(2, P(2))&lt;/font&gt;" style="text;html=1;strokeColor=none;fillColor=none;align=center;verticalAlign=middle;whiteSpace=wrap;rounded=0;" vertex="1" parent="1">
          <mxGeometry x="460" y="250" width="90" height="30" as="geometry" />
        </mxCell>
        <mxCell id="FQGTf7QeuJeiLilW7rd6-16" value="&lt;font style=&quot;font-size: 15px;&quot; face=&quot;Courier New&quot;&gt;(3, P(3))&lt;/font&gt;" style="text;html=1;strokeColor=none;fillColor=none;align=center;verticalAlign=middle;whiteSpace=wrap;rounded=0;" vertex="1" parent="1">
          <mxGeometry x="460" y="380" width="90" height="30" as="geometry" />
        </mxCell>
        <mxCell id="FQGTf7QeuJeiLilW7rd6-17" value="&lt;font style=&quot;font-size: 15px;&quot; face=&quot;Courier New&quot;&gt;(4, P(4))&lt;/font&gt;" style="text;html=1;strokeColor=none;fillColor=none;align=center;verticalAlign=middle;whiteSpace=wrap;rounded=0;" vertex="1" parent="1">
          <mxGeometry x="460" y="520" width="90" height="30" as="geometry" />
        </mxCell>
        <mxCell id="FQGTf7QeuJeiLilW7rd6-18" value="&lt;font style=&quot;font-size: 15px;&quot; face=&quot;Courier New&quot;&gt;(5, P(5))&lt;/font&gt;" style="text;html=1;strokeColor=none;fillColor=none;align=center;verticalAlign=middle;whiteSpace=wrap;rounded=0;" vertex="1" parent="1">
          <mxGeometry x="460" y="660" width="90" height="30" as="geometry" />
        </mxCell>
        <mxCell id="FQGTf7QeuJeiLilW7rd6-19" value="&lt;font style=&quot;font-size: 15px;&quot; face=&quot;Courier New&quot;&gt;(6, P(6))&lt;/font&gt;" style="text;html=1;strokeColor=none;fillColor=none;align=center;verticalAlign=middle;whiteSpace=wrap;rounded=0;" vertex="1" parent="1">
          <mxGeometry x="460" y="810" width="90" height="30" as="geometry" />
        </mxCell>
        <mxCell id="FQGTf7QeuJeiLilW7rd6-20" value="&lt;font face=&quot;Courier New&quot; style=&quot;font-size: 25px;&quot;&gt;&lt;b&gt;Secret Distribution&lt;/b&gt;&lt;/font&gt;" style="text;html=1;strokeColor=none;fillColor=none;align=center;verticalAlign=middle;whiteSpace=wrap;rounded=0;" vertex="1" parent="1">
          <mxGeometry x="404" y="20" width="310" height="60" as="geometry" />
        </mxCell>
        <mxCell id="FQGTf7QeuJeiLilW7rd6-22" value="" style="endArrow=none;html=1;rounded=0;dashed=1;strokeWidth=2;" edge="1" parent="1">
          <mxGeometry width="50" height="50" relative="1" as="geometry">
            <mxPoint x="729" y="912" as="sourcePoint" />
            <mxPoint x="729" y="84" as="targetPoint" />
          </mxGeometry>
        </mxCell>
        <mxCell id="FQGTf7QeuJeiLilW7rd6-24" value="" style="rounded=1;whiteSpace=wrap;html=1;fillColor=none;dashed=1;dashPattern=1 1;strokeWidth=4;" vertex="1" parent="1">
          <mxGeometry x="570" y="352" width="100" height="558" as="geometry" />
        </mxCell>
        <mxCell id="FQGTf7QeuJeiLilW7rd6-25" value="" style="edgeStyle=elbowEdgeStyle;elbow=horizontal;endArrow=classic;html=1;curved=0;rounded=0;endSize=8;startSize=8;strokeWidth=2;" edge="1" parent="1">
          <mxGeometry width="50" height="50" relative="1" as="geometry">
            <mxPoint x="670" y="600" as="sourcePoint" />
            <mxPoint x="850" y="350" as="targetPoint" />
          </mxGeometry>
        </mxCell>
        <mxCell id="FQGTf7QeuJeiLilW7rd6-26" value="" style="shape=image;html=1;verticalAlign=top;verticalLabelPosition=bottom;labelBackgroundColor=#ffffff;imageAspect=0;aspect=fixed;image=https://cdn4.iconfinder.com/data/icons/core-ui-outlined/32/outlined_account_group-128.png" vertex="1" parent="1">
          <mxGeometry x="870" y="240" width="81" height="81" as="geometry" />
        </mxCell>
        <mxCell id="FQGTf7QeuJeiLilW7rd6-27" value="" style="shape=image;html=1;verticalAlign=top;verticalLabelPosition=bottom;labelBackgroundColor=#ffffff;imageAspect=0;aspect=fixed;image=https://cdn4.iconfinder.com/data/icons/core-ui-outlined/32/outlined_account_group-128.png;direction=east;flipV=0;flipH=1;" vertex="1" parent="1">
          <mxGeometry x="951" y="239" width="82" height="82" as="geometry" />
        </mxCell>
        <mxCell id="FQGTf7QeuJeiLilW7rd6-28" value="&lt;font face=&quot;Courier New&quot; style=&quot;font-size: 25px;&quot;&gt;&lt;b&gt;Interpolation&lt;/b&gt;&lt;/font&gt;" style="text;html=1;strokeColor=none;fillColor=none;align=center;verticalAlign=middle;whiteSpace=wrap;rounded=0;" vertex="1" parent="1">
          <mxGeometry x="790" y="20" width="310" height="60" as="geometry" />
        </mxCell>
        <mxCell id="FQGTf7QeuJeiLilW7rd6-30" value="&lt;div style=&quot;&quot;&gt;&lt;font style=&quot;background-color: initial; font-size: 18px;&quot; face=&quot;Courier New&quot;&gt;&amp;nbsp; &amp;nbsp;1.&amp;nbsp;&lt;/font&gt;&lt;font style=&quot;background-color: initial; font-size: 18px;&quot; face=&quot;Courier New&quot;&gt;Choose a random prime&lt;/font&gt;&lt;/div&gt;&lt;div style=&quot;&quot;&gt;&lt;font style=&quot;background-color: initial; font-size: 18px;&quot; face=&quot;Courier New&quot;&gt;&amp;nbsp; &amp;nbsp; &amp;nbsp; number &lt;b&gt;p&lt;/b&gt;&lt;/font&gt;&lt;/div&gt;&lt;font style=&quot;font-size: 18px;&quot; face=&quot;Courier New&quot;&gt;&lt;div style=&quot;&quot;&gt;&lt;span style=&quot;background-color: initial;&quot;&gt;&amp;nbsp; &amp;nbsp;2. Choose a secret value &lt;/span&gt;&lt;b style=&quot;background-color: initial;&quot;&gt;s&lt;/b&gt;&lt;/div&gt;&lt;div style=&quot;&quot;&gt;&lt;span style=&quot;background-color: initial;&quot;&gt;&amp;nbsp; &amp;nbsp;3. Generate a random&lt;/span&gt;&lt;/div&gt;&lt;div style=&quot;&quot;&gt;&lt;span style=&quot;background-color: initial;&quot;&gt;&amp;nbsp; &amp;nbsp; &amp;nbsp; polynomial with a&lt;/span&gt;&lt;sub style=&quot;background-color: initial;&quot;&gt;i&lt;/sub&gt;&lt;span style=&quot;background-color: initial;&quot;&gt; in F&lt;/span&gt;&lt;sub style=&quot;background-color: initial;&quot;&gt;p&lt;/sub&gt;&lt;span style=&quot;background-color: initial;&quot;&gt;,&amp;nbsp; &amp;nbsp; &amp;nbsp; &amp;nbsp; where &lt;b&gt;a0 = s&lt;/b&gt;&lt;/span&gt;&lt;/div&gt;&lt;/font&gt;&lt;font style=&quot;font-size: 18px;&quot; face=&quot;Courier New&quot;&gt;&lt;br&gt;&lt;div style=&quot;text-align: center;&quot;&gt;&lt;span style=&quot;background-color: initial;&quot;&gt;P(x) = a&lt;sub&gt;0&lt;/sub&gt; + a&lt;sub&gt;1&lt;/sub&gt;x + a&lt;sub&gt;2&lt;/sub&gt;x&lt;sup&gt;2&lt;/sup&gt; + a&lt;sub&gt;3&lt;/sub&gt;x&lt;sup&gt;3&lt;/sup&gt;&lt;/span&gt;&lt;/div&gt;&lt;/font&gt;" style="rounded=1;whiteSpace=wrap;html=1;fillColor=none;align=left;" vertex="1" parent="1">
          <mxGeometry x="10" y="182" width="350" height="202" as="geometry" />
        </mxCell>
        <mxCell id="FQGTf7QeuJeiLilW7rd6-32" value="&lt;font face=&quot;Courier New&quot; style=&quot;font-size: 18px;&quot;&gt;Group of &lt;b&gt;k&lt;/b&gt; users&lt;/font&gt;" style="text;html=1;strokeColor=none;fillColor=none;align=center;verticalAlign=middle;whiteSpace=wrap;rounded=0;" vertex="1" parent="1">
          <mxGeometry x="852.5" y="211" width="185" height="28" as="geometry" />
        </mxCell>
        <mxCell id="FQGTf7QeuJeiLilW7rd6-33" value="&lt;font face=&quot;Courier New&quot; style=&quot;font-size: 18px;&quot;&gt;Interpolation method (i.e. Lagrange)&lt;/font&gt;" style="rounded=0;whiteSpace=wrap;html=1;fillColor=none;" vertex="1" parent="1">
          <mxGeometry x="831.25" y="442" width="227.5" height="60" as="geometry" />
        </mxCell>
        <mxCell id="FQGTf7QeuJeiLilW7rd6-35" value="&lt;font face=&quot;Courier New&quot;&gt;&lt;span style=&quot;font-size: 18px;&quot;&gt;&lt;b&gt;k&lt;/b&gt; shares&lt;/span&gt;&lt;/font&gt;" style="rounded=1;whiteSpace=wrap;html=1;fillColor=none;" vertex="1" parent="1">
          <mxGeometry x="875" y="330" width="140" height="40" as="geometry" />
        </mxCell>
        <mxCell id="FQGTf7QeuJeiLilW7rd6-38" value="" style="endArrow=classic;html=1;rounded=0;entryX=0.5;entryY=0;entryDx=0;entryDy=0;exitX=0.5;exitY=1;exitDx=0;exitDy=0;" edge="1" parent="1" source="FQGTf7QeuJeiLilW7rd6-35" target="FQGTf7QeuJeiLilW7rd6-33">
          <mxGeometry width="50" height="50" relative="1" as="geometry">
            <mxPoint x="951" y="372" as="sourcePoint" />
            <mxPoint x="951" y="440" as="targetPoint" />
          </mxGeometry>
        </mxCell>
        <mxCell id="FQGTf7QeuJeiLilW7rd6-39" value="" style="endArrow=classic;html=1;rounded=0;entryX=0.5;entryY=0;entryDx=0;entryDy=0;exitX=0.5;exitY=1;exitDx=0;exitDy=0;" edge="1" parent="1" source="FQGTf7QeuJeiLilW7rd6-33" target="FQGTf7QeuJeiLilW7rd6-40">
          <mxGeometry width="50" height="50" relative="1" as="geometry">
            <mxPoint x="944.47" y="502" as="sourcePoint" />
            <mxPoint x="944.47" y="574" as="targetPoint" />
          </mxGeometry>
        </mxCell>
        <mxCell id="FQGTf7QeuJeiLilW7rd6-40" value="&lt;font face=&quot;Courier New&quot;&gt;&lt;span style=&quot;font-size: 18px;&quot;&gt;Reconstruct &lt;b&gt;P&lt;/b&gt;&lt;/span&gt;&lt;/font&gt;" style="rounded=1;whiteSpace=wrap;html=1;fillColor=none;" vertex="1" parent="1">
          <mxGeometry x="867.5" y="580" width="155" height="40" as="geometry" />
        </mxCell>
        <mxCell id="FQGTf7QeuJeiLilW7rd6-41" value="" style="endArrow=classic;html=1;rounded=0;entryX=0.5;entryY=0;entryDx=0;entryDy=0;exitX=0.5;exitY=1;exitDx=0;exitDy=0;" edge="1" parent="1" target="FQGTf7QeuJeiLilW7rd6-42" source="FQGTf7QeuJeiLilW7rd6-40">
          <mxGeometry width="50" height="50" relative="1" as="geometry">
            <mxPoint x="947.5" y="620" as="sourcePoint" />
            <mxPoint x="946.97" y="692" as="targetPoint" />
          </mxGeometry>
        </mxCell>
        <mxCell id="FQGTf7QeuJeiLilW7rd6-42" value="&lt;font face=&quot;Courier New&quot;&gt;&lt;span style=&quot;font-size: 18px;&quot;&gt;Obtain the secret &lt;b&gt;s&lt;/b&gt;&lt;/span&gt;&lt;/font&gt;" style="rounded=1;whiteSpace=wrap;html=1;fillColor=none;" vertex="1" parent="1">
          <mxGeometry x="867.5" y="698" width="155" height="40" as="geometry" />
        </mxCell>
      </root>
    </mxGraphModel>
  </diagram>
</mxfile>
